<?xml version="1.0" standalone="no"?>
<!DOCTYPE svg PUBLIC "-//W3C//DTD SVG 20010904//EN"
 "http://www.w3.org/TR/2001/REC-SVG-20010904/DTD/svg10.dtd">
<svg version="1.0" xmlns="http://www.w3.org/2000/svg"
 width="1920.000000pt" height="1080.000000pt" viewBox="0 0 1920.000000 1080.000000"
 preserveAspectRatio="xMidYMid meet">

<g transform="translate(0.000000,1080.000000) scale(0.100000,-0.100000)"
fill="#000000" stroke="none">
<path d="M11860 6217 c-31 -15 -60 -71 -60 -115 0 -46 24 -97 54 -117 33 -22
103 -22 144 -1 30 15 32 20 32 66 l0 50 -50 0 c-58 0 -68 -17 -12 -22 31 -3
37 -7 40 -29 6 -54 -83 -84 -141 -46 -37 24 -54 85 -38 137 22 75 111 101 158
46 26 -30 39 -30 29 2 -13 39 -103 56 -156 29z"/>
<path d="M12200 6100 c0 -80 4 -130 10 -130 6 0 10 27 10 60 l0 60 39 0 c34 0
44 -6 69 -37 16 -21 34 -48 41 -60 6 -13 19 -23 27 -23 13 0 12 7 -7 38 -12
20 -30 44 -40 54 -26 22 -24 35 6 42 49 12 53 90 6 115 -11 6 -51 11 -90 11
l-71 0 0 -130z m160 91 c28 -53 -1 -81 -81 -81 l-59 0 0 50 0 50 65 0 c53 0
66 -3 75 -19z"/>
<path d="M12561 6143 c0 -118 13 -154 61 -170 51 -17 103 -1 123 37 17 34 22
220 5 220 -6 0 -10 -35 -10 -84 0 -45 -5 -98 -11 -115 -18 -52 -76 -63 -121
-23 -15 13 -18 33 -18 119 0 85 -3 103 -15 103 -12 0 -15 -16 -14 -87z"/>
<path d="M12930 6101 c0 -81 4 -131 10 -131 6 0 10 25 10 55 l0 55 60 0 c51 0
65 4 85 25 30 29 32 64 6 96 -16 20 -30 24 -95 27 l-76 4 0 -131z m144 96 c11
-8 19 -26 19 -42 0 -39 -27 -55 -90 -55 l-53 0 0 48 c0 27 3 52 7 55 12 12 99
7 117 -6z"/>
<path d="M13308 6201 c-28 -25 -32 -35 -36 -93 -4 -58 -1 -67 22 -95 51 -60
165 -52 195 14 6 13 11 49 11 79 0 50 -3 59 -34 90 -29 29 -41 34 -80 34 -36
0 -52 -6 -78 -29z m141 -15 c47 -50 36 -157 -19 -190 -97 -57 -190 93 -114
183 34 41 98 44 133 7z"/>
<path d="M7250 6110 c-19 -19 -20 -33 -20 -543 0 -583 -2 -567 65 -567 59 0
65 20 65 216 l0 171 158 5 c151 4 162 6 223 35 104 49 167 123 195 233 40 157
-18 325 -139 405 -81 53 -144 65 -349 65 -165 0 -179 -1 -198 -20z m467 -22
c80 -30 162 -112 191 -191 30 -79 30 -195 1 -274 -28 -72 -91 -141 -166 -179
-56 -28 -63 -29 -230 -32 l-173 -4 -2 -190 c-3 -166 -5 -192 -20 -201 -12 -8
-24 -8 -42 1 l-26 12 0 533 c0 294 3 537 7 540 3 4 95 7 204 7 179 0 203 -2
256 -22z"/>
<path d="M7340 5763 l0 -263 148 0 c172 0 224 13 279 68 51 51 73 105 73 183
0 113 -38 189 -118 236 -45 27 -54 28 -215 33 l-167 5 0 -262z m312 237 c53
-15 119 -68 147 -119 30 -55 34 -177 8 -228 -58 -111 -129 -143 -317 -143
l-130 0 0 250 0 250 128 0 c70 0 144 -5 164 -10z"/>
<path d="M10662 6105 c-19 -23 -19 -43 -17 -477 2 -434 3 -455 23 -499 26 -60
81 -114 122 -123 96 -19 150 1 150 56 0 34 -19 48 -77 56 -39 6 -51 13 -70 41
l-23 34 0 448 c0 436 -1 450 -20 469 -27 27 -64 25 -88 -5z m88 -465 c4 -358
8 -470 18 -488 15 -26 49 -42 107 -51 36 -5 40 -9 43 -38 4 -43 -27 -58 -93
-49 -54 9 -106 49 -138 110 -22 40 -22 50 -25 493 -2 317 1 459 8 474 9 15 19
19 43 17 l32 -3 5 -465z"/>
<path d="M11097 6112 c-15 -17 -17 -70 -17 -550 0 -583 -2 -562 60 -562 58 0
60 8 60 273 0 214 3 247 19 282 21 46 50 74 106 104 52 27 179 30 233 4 53
-25 109 -86 121 -131 6 -21 12 -143 14 -269 3 -255 5 -263 63 -263 63 0 67 17
62 287 -5 257 -13 298 -66 373 -33 47 -102 99 -155 117 -109 39 -253 24 -340
-34 -27 -18 -51 -33 -53 -33 -2 0 -4 87 -4 193 0 175 -2 196 -18 210 -24 22
-65 21 -85 -1z m83 -28 c6 -14 10 -113 10 -219 l0 -195 53 40 c69 53 135 75
222 74 146 -1 267 -83 313 -214 21 -61 22 -81 22 -303 l0 -237 -25 -12 c-20
-9 -28 -8 -44 6 -18 16 -19 36 -23 259 -4 271 -7 287 -78 351 -112 101 -330
81 -409 -38 -26 -39 -26 -40 -31 -296 -5 -269 -9 -290 -51 -290 -10 0 -25 10
-33 22 -14 20 -16 86 -16 525 0 302 4 512 10 527 7 20 16 26 40 26 24 0 33 -6
40 -26z"/>
<path d="M10293 6085 c-42 -30 -39 -108 6 -142 46 -35 131 14 131 74 0 63 -85
105 -137 68z m99 -22 c22 -20 23 -70 1 -95 -37 -41 -115 -10 -115 47 0 56 72
87 114 48z"/>
<path d="M9748 6029 c-16 -9 -18 -26 -18 -134 l0 -125 -39 0 c-82 0 -127 -39
-97 -85 13 -20 26 -25 73 -27 l58 -3 5 -235 c6 -266 9 -281 90 -354 56 -51 97
-66 174 -66 73 0 96 14 96 60 0 43 -23 60 -83 60 -65 0 -109 26 -137 79 -18
37 -20 59 -20 251 l0 210 93 0 c101 0 117 7 117 51 0 43 -23 54 -119 54 l-86
0 -3 120 c-2 93 -6 123 -19 137 -18 20 -58 23 -85 7z m68 -13 c17 -13 19 -29
22 -140 l4 -126 93 0 c83 0 96 -2 105 -19 13 -25 13 -27 -6 -45 -12 -12 -37
-16 -107 -16 l-92 0 5 -234 c5 -219 6 -237 26 -263 31 -42 73 -62 142 -69 70
-8 86 -27 57 -71 -16 -24 -20 -25 -82 -19 -102 11 -165 52 -211 140 -27 51
-27 53 -30 283 l-3 232 -61 3 c-68 3 -93 22 -72 56 8 12 27 18 73 20 l61 3 0
124 c0 99 3 127 16 139 19 20 35 20 60 2z"/>
<path d="M6345 6002 c-103 -36 -164 -109 -165 -198 0 -34 21 -112 77 -286 4
-14 -6 -12 -56 14 -82 42 -284 246 -299 302 -17 59 4 97 61 111 59 15 107 -16
107 -70 0 -38 -26 -60 -56 -48 -12 4 -15 3 -10 -5 23 -37 92 20 81 68 -3 14
-18 36 -32 49 -22 19 -34 22 -70 18 -58 -6 -91 -30 -98 -71 -10 -52 25 -108
141 -227 57 -58 104 -108 104 -112 0 -18 -28 -1 -113 70 -130 108 -172 133
-224 133 -63 0 -93 -32 -93 -100 0 -41 5 -56 25 -75 28 -29 70 -32 103 -9 23
16 30 58 10 70 -7 5 -9 0 -6 -14 3 -11 -1 -30 -9 -41 -35 -50 -113 -3 -113 67
0 83 66 115 148 73 71 -37 246 -190 269 -236 13 -24 27 -46 33 -50 5 -3 10
-10 10 -14 0 -5 -61 7 -135 26 -103 27 -146 34 -180 29 -124 -19 -192 -138
-183 -320 7 -131 52 -221 130 -262 82 -43 256 11 423 131 54 40 57 38 26 -21
-45 -88 -55 -145 -36 -209 46 -159 294 -203 385 -68 34 51 35 163 0 241 -12
29 -21 55 -18 57 2 3 18 -1 35 -7 60 -23 80 9 43 70 -23 38 -21 38 56 11 107
-37 217 -26 266 28 45 49 60 145 37 224 -25 82 -110 148 -191 149 -46 0 -133
-32 -178 -65 -18 -14 -35 -23 -37 -21 -2 2 18 38 45 79 66 101 111 212 119
291 10 109 -42 179 -161 219 -67 23 -205 22 -271 -1z m260 -13 c84 -26 142
-76 155 -133 21 -93 -46 -264 -169 -436 -84 -117 -82 -131 8 -47 83 76 140
102 228 102 84 0 111 -15 157 -88 39 -63 42 -163 7 -220 -50 -82 -145 -97
-284 -47 -83 30 -86 33 -253 194 l-169 163 -29 94 c-59 190 -67 228 -55 274
33 129 228 199 404 144z m-535 -567 l134 -39 167 -157 c151 -143 170 -164 200
-229 26 -57 34 -88 37 -147 3 -65 1 -79 -20 -110 -35 -53 -100 -83 -169 -77
-131 11 -210 98 -196 218 7 59 32 108 97 194 28 37 49 70 46 72 -2 3 -35 -19
-73 -49 -177 -141 -361 -226 -444 -205 -94 24 -168 152 -169 292 0 60 27 155
57 198 60 87 133 95 333 39z"/>
<path d="M6369 5831 c-47 -48 -40 -107 36 -290 21 -50 41 -91 44 -90 12 1 145
173 172 223 36 64 37 105 4 138 -32 32 -87 48 -164 48 -56 0 -66 -3 -92 -29z
m158 6 c108 -23 128 -68 74 -162 -42 -71 -142 -188 -152 -178 -18 18 -82 189
-87 230 -7 63 4 92 41 108 40 18 47 18 124 2z"/>
<path d="M6693 5328 c-40 -12 -73 -24 -73 -27 0 -13 132 -83 166 -88 45 -7 74
17 74 64 0 41 -30 73 -67 72 -16 0 -61 -10 -100 -21z m136 -12 c7 -8 11 -30 9
-48 -3 -28 -7 -34 -31 -36 -25 -3 -115 35 -141 58 -10 10 76 38 120 39 17 1
37 -5 43 -13z"/>
<path d="M5874 5309 c-49 -25 -61 -112 -29 -208 44 -135 132 -119 324 57 l74
68 -114 43 c-120 45 -216 60 -255 40z m219 -46 c59 -20 107 -41 107 -45 0 -13
-168 -155 -204 -172 -39 -18 -69 -20 -96 -6 -27 14 -54 96 -55 163 0 50 4 62
24 78 36 30 101 25 224 -18z"/>
<path d="M6381 5023 c-41 -151 -32 -203 36 -203 51 0 73 15 73 51 0 31 -42
120 -79 169 l-19 24 -11 -41z m75 -97 c29 -61 20 -86 -31 -86 -24 0 -37 6 -45
21 -12 21 -6 82 12 129 9 25 10 25 25 5 8 -11 26 -42 39 -69z"/>
<path d="M8315 5786 c-117 -29 -198 -95 -252 -203 -37 -75 -38 -80 -38 -187 0
-143 21 -201 105 -287 86 -88 148 -113 275 -114 92 0 105 3 165 31 36 18 77
44 92 58 35 33 38 33 38 -7 0 -51 25 -79 68 -75 56 5 62 26 62 218 0 209 -11
288 -52 368 -81 162 -274 245 -463 198z m226 -21 c96 -27 190 -112 237 -213
26 -55 27 -64 30 -271 2 -118 1 -224 -2 -237 -7 -28 -38 -39 -66 -24 -17 9
-20 21 -20 75 0 36 -2 65 -5 65 -3 0 -20 -17 -39 -37 -57 -63 -133 -103 -214
-111 -206 -22 -367 89 -418 288 -44 173 42 363 202 441 97 48 185 55 295 24z"/>
<path d="M8330 5691 c-77 -24 -146 -87 -181 -166 -34 -75 -32 -191 2 -265 31
-64 76 -113 133 -143 33 -18 58 -22 131 -22 78 0 97 4 147 28 103 51 153 142
152 277 0 71 -4 93 -26 135 -56 109 -147 165 -263 164 -38 0 -81 -4 -95 -8z
m215 -32 c57 -29 98 -72 130 -135 25 -50 27 -61 23 -142 -6 -124 -51 -197
-152 -250 -74 -38 -180 -38 -252 0 -63 33 -118 95 -138 156 -20 58 -20 157 -1
212 30 85 118 163 204 181 54 11 141 1 186 -22z"/>
<path d="M9276 5780 c-27 -11 -67 -33 -88 -50 l-38 -31 0 30 c0 16 -7 37 -16
45 -18 19 -75 21 -92 4 -16 -16 -17 -729 -2 -759 7 -13 21 -19 45 -19 64 0 65
3 65 281 0 230 2 253 20 289 40 79 109 112 230 112 104 1 122 8 118 51 -2 25
-11 36 -38 49 -47 24 -141 23 -204 -2z m168 0 c49 -11 70 -31 61 -59 -6 -19
-14 -21 -90 -21 -132 0 -211 -34 -254 -110 -20 -37 -22 -53 -24 -294 -2 -223
-4 -257 -19 -272 -22 -22 -64 -12 -72 18 -3 13 -6 175 -6 361 0 327 1 338 21
358 11 11 28 19 37 17 22 -4 42 -45 42 -88 l0 -34 43 41 c49 47 92 71 150 83
57 11 66 11 111 0z"/>
<path d="M12300 5786 c-179 -50 -290 -200 -290 -391 0 -169 84 -306 228 -373
49 -23 70 -26 157 -27 89 0 107 3 162 29 33 15 74 41 89 57 36 37 44 37 44 -4
0 -48 24 -77 64 -77 53 0 58 14 60 177 4 253 -5 331 -44 408 -36 71 -97 132
-165 168 -54 28 -147 49 -159 37 -7 -7 -1 -10 15 -10 45 0 140 -39 191 -77 27
-21 64 -60 83 -88 57 -84 65 -132 65 -370 0 -222 -2 -235 -46 -235 -33 0 -43
21 -46 88 -2 34 -4 62 -6 62 -1 0 -19 -18 -39 -41 -20 -22 -63 -54 -96 -71
-195 -98 -411 -22 -508 177 -30 63 -33 79 -34 160 0 117 28 194 97 271 55 59
149 112 217 121 22 3 41 10 41 14 0 12 -25 10 -80 -5z"/>
<path d="M13282 5787 c-23 -7 -65 -29 -92 -49 l-50 -37 0 29 c0 16 -7 36 -16
44 -18 19 -75 21 -92 4 -16 -16 -17 -729 -2 -759 8 -14 21 -19 50 -19 29 0 42
5 50 19 6 12 10 115 10 266 0 226 2 249 20 285 40 79 109 112 230 112 107 0
122 7 118 56 -3 32 -8 39 -38 49 -44 15 -132 15 -188 0z m159 -7 c45 -13 63
-32 54 -60 -6 -18 -14 -20 -94 -20 -104 0 -162 -17 -209 -63 -63 -61 -65 -67
-68 -347 -3 -226 -6 -256 -21 -267 -22 -17 -38 -16 -57 3 -14 13 -16 60 -16
360 0 205 4 353 10 363 28 53 77 30 86 -40 l7 -50 41 39 c78 76 179 106 267
82z"/>
<path d="M10296 5768 c-14 -19 -16 -72 -16 -373 0 -397 0 -399 68 -393 62 5
63 9 60 404 -2 280 -6 354 -17 367 -20 25 -76 22 -95 -5z m75 2 c18 -10 19
-25 19 -366 0 -226 -4 -362 -10 -375 -12 -21 -50 -25 -68 -7 -9 9 -12 106 -12
375 0 334 1 363 18 372 22 13 29 13 53 1z"/>
<path d="M12320 5691 c-76 -23 -146 -87 -182 -166 -33 -73 -31 -199 5 -270 54
-106 149 -165 267 -165 118 0 213 58 267 163 37 72 39 197 5 272 -52 112 -149
175 -267 174 -38 0 -81 -4 -95 -8z m219 -35 c96 -49 151 -144 151 -261 0 -118
-54 -211 -154 -263 -42 -22 -64 -26 -126 -26 -113 0 -188 44 -251 149 -21 35
-24 52 -24 135 0 101 17 153 68 208 28 30 99 72 140 83 52 13 143 1 196 -25z"/>
<path d="M7300 4560 c0 -80 4 -130 10 -130 6 0 10 50 10 130 0 80 -4 130 -10
130 -6 0 -10 -50 -10 -130z"/>
<path d="M7490 4560 l0 -130 75 0 c91 0 101 18 13 22 l-63 3 -3 118 c-4 162
-22 152 -22 -13z"/>
<path d="M7800 4585 c0 -99 2 -107 25 -130 18 -19 35 -25 70 -25 35 0 52 6 70
25 23 23 25 31 25 130 0 63 -4 105 -10 105 -6 0 -10 -40 -10 -99 0 -112 -11
-136 -67 -147 -26 -5 -37 -1 -57 19 -24 25 -26 32 -26 127 0 60 -4 100 -10
100 -6 0 -10 -42 -10 -105z"/>
<path d="M8160 4560 c0 -80 4 -130 10 -130 6 0 10 43 10 110 0 61 4 110 9 110
5 0 25 -48 44 -107 22 -66 41 -108 49 -108 8 0 27 41 47 103 19 56 38 102 43
102 4 0 8 -47 8 -105 0 -63 4 -105 10 -105 6 0 10 50 10 131 0 119 -2 130 -17
127 -13 -2 -28 -34 -54 -111 -20 -59 -41 -108 -45 -108 -5 0 -25 49 -44 110
-31 98 -38 111 -57 111 -23 0 -23 -2 -23 -130z"/>
<path d="M8580 4560 c0 -80 4 -130 10 -130 6 0 10 50 10 130 0 80 -4 130 -10
130 -6 0 -10 -50 -10 -130z"/>
<path d="M8770 4560 c0 -80 4 -130 10 -130 6 0 10 40 10 99 0 55 4 102 8 105
5 3 39 -42 76 -100 37 -57 74 -104 82 -104 11 0 14 25 14 130 0 80 -4 130 -10
130 -6 0 -10 -42 -10 -105 0 -58 -4 -105 -8 -105 -5 0 -39 47 -76 105 -38 58
-74 105 -82 105 -11 0 -14 -25 -14 -130z"/>
<path d="M9199 4663 c-30 -79 -79 -216 -79 -224 0 -5 4 -9 10 -9 5 0 14 18 20
40 l11 40 63 0 63 0 12 -40 c7 -25 18 -40 27 -40 9 0 14 6 11 13 -3 6 -20 48
-36 92 -50 129 -63 155 -78 155 -7 0 -18 -12 -24 -27z m55 -67 c9 -27 16 -53
16 -58 0 -4 -22 -8 -49 -8 l-50 0 19 55 c32 92 36 93 64 11z"/>
<path d="M9490 4560 c0 -88 4 -130 11 -130 7 0 10 32 8 99 -2 55 -1 102 2 105
3 4 37 -41 75 -99 37 -58 74 -105 81 -105 10 0 13 31 13 130 0 80 -4 130 -10
130 -6 0 -10 -42 -10 -105 0 -105 -8 -126 -31 -82 -30 55 -120 187 -129 187
-6 0 -10 -51 -10 -130z"/>
<path d="M9850 4560 l0 -132 76 4 c67 3 79 7 99 30 42 49 41 144 -3 198 -15
19 -31 24 -95 28 l-77 5 0 -133z m134 99 c34 -16 50 -59 44 -121 -7 -68 -31
-88 -104 -88 l-54 0 0 103 c0 57 3 107 7 110 10 11 80 8 107 -4z"/>
<path d="M10244 4654 c-30 -31 -34 -42 -34 -91 0 -89 38 -133 116 -133 78 0
114 43 114 136 0 50 -3 59 -34 90 -29 29 -41 34 -81 34 -42 0 -52 -5 -81 -36z
m145 -8 c29 -30 39 -103 21 -146 -13 -31 -54 -60 -85 -60 -31 0 -72 29 -85 60
-18 43 -8 116 21 146 17 18 33 24 64 24 31 0 47 -6 64 -24z"/>
<path d="M10917 4669 c-34 -26 -52 -85 -43 -141 11 -70 44 -98 116 -98 33 0
48 6 71 29 26 27 38 51 23 51 -3 0 -20 -16 -38 -35 -36 -38 -62 -43 -106 -20
-34 18 -45 48 -43 119 1 38 7 54 27 74 36 36 91 36 120 -1 12 -15 25 -27 29
-27 15 0 6 22 -18 45 -32 33 -100 35 -138 4z"/>
<path d="M11304 4654 c-50 -119 -82 -224 -70 -224 8 0 18 17 23 38 9 37 9 37
67 42 62 6 68 2 83 -45 5 -16 17 -31 26 -33 15 -3 15 1 -2 40 -10 24 -33 82
-52 131 -19 49 -39 87 -47 87 -7 0 -20 -16 -28 -36z m52 -46 c9 -29 19 -59 22
-65 3 -9 -10 -13 -48 -13 -37 0 -50 3 -46 13 2 6 12 36 21 65 9 28 20 52 25
52 5 0 16 -24 26 -52z"/>
<path d="M11590 4561 c0 -81 4 -131 10 -131 6 0 10 41 10 104 0 58 4 107 9
110 4 3 24 -43 43 -102 22 -70 39 -107 48 -107 9 0 26 37 48 107 19 59 39 105
43 102 5 -3 9 -52 9 -110 0 -63 4 -104 10 -104 6 0 10 50 10 130 0 120 -1 130
-19 130 -14 0 -26 -23 -57 -115 -21 -63 -41 -115 -44 -115 -4 0 -22 51 -41
113 -30 95 -38 112 -57 115 -22 3 -22 2 -22 -127z"/>
<path d="M12000 4560 c0 -109 2 -130 15 -130 13 0 15 21 15 130 0 109 -2 130
-15 130 -13 0 -15 -21 -15 -130z"/>
<path d="M12200 4560 c0 -80 4 -130 10 -130 6 0 10 42 10 105 0 58 3 105 8
105 4 -1 37 -48 74 -105 38 -59 74 -105 83 -105 13 0 15 19 15 130 0 97 -3
130 -12 130 -10 0 -12 -26 -10 -106 3 -82 0 -105 -9 -102 -7 2 -41 50 -77 106
-35 56 -70 102 -78 102 -11 0 -14 -24 -14 -130z"/>
<path d="M12570 4560 c0 -80 4 -130 10 -130 6 0 10 28 10 65 l0 65 75 0 75 0
0 -65 c0 -37 4 -65 10 -65 6 0 10 50 10 130 0 80 -4 130 -10 130 -5 0 -10 -25
-10 -55 l0 -55 -75 0 -75 0 0 55 c0 30 -4 55 -10 55 -6 0 -10 -50 -10 -130z"/>
<path d="M12979 4675 c-34 -19 -53 -66 -50 -127 4 -82 41 -118 122 -118 33 0
48 7 75 34 30 30 34 40 34 88 0 62 -26 113 -66 128 -36 14 -84 12 -115 -5z
m143 -56 c24 -46 22 -89 -5 -130 -60 -89 -167 -44 -167 71 0 63 22 95 75 111
33 10 79 -14 97 -52z"/>
<path d="M13340 4670 c-43 -43 -14 -101 56 -114 59 -11 86 -32 82 -64 -7 -59
-105 -67 -137 -11 -19 33 -31 37 -31 10 0 -32 47 -61 99 -61 62 0 91 21 91 65
0 42 -19 61 -73 76 -75 20 -87 27 -87 53 0 34 22 48 72 44 33 -2 45 -8 53 -25
12 -28 25 -30 25 -4 0 48 -110 71 -150 31z"/>
</g>
</svg>
